<svg xmlns="http://www.w3.org/2000/svg" viewBox="0 0 640 640"><defs><linearGradient id="agent-volumes-logo-square-light-theme-without-bg-favicon_svg__a" x1="100%" x2="0%" y1="100%" y2="0%"><stop offset="0%" stop-color="#6366f1"/><stop offset="100%" stop-color="#a855f7"/></linearGradient><linearGradient id="agent-volumes-logo-square-light-theme-without-bg-favicon_svg__b" x1="0%" x2="100%" y1="100%" y2="0%"><stop offset="0%" stop-color="#06b6d4"/><stop offset="100%" stop-color="#3b82f6"/></linearGradient></defs><g transform="translate(320 340.952)scale(1.90476)"><path fill="url(#agent-volumes-logo-square-light-theme-without-bg-favicon_svg__a)" d="m0 60-140-70 40-90L0-30Z" opacity=".15"/><path fill="url(#agent-volumes-logo-square-light-theme-without-bg-favicon_svg__b)" d="m0 60 140-70-40-90L0-30Z" opacity=".15"/><path fill="none" stroke="url(#agent-volumes-logo-square-light-theme-without-bg-favicon_svg__a)" stroke-linejoin="round" stroke-width="8" d="m0 100-160-80 40-100L0 0Z" opacity=".8"/><path fill="none" stroke="url(#agent-volumes-logo-square-light-theme-without-bg-favicon_svg__b)" stroke-linejoin="round" stroke-width="8" d="m0 100 160-80-40-100L0 0Z" opacity=".8"/><path stroke="#1e293b" stroke-linecap="round" stroke-width="8" d="M0 100V0"/><rect width="10" height="12" x="-5" y="-132" fill="#1e293b" rx="2"/><g transform="rotate(-30 -205.263 -55)"><path fill="url(#agent-volumes-logo-square-light-theme-without-bg-favicon_svg__a)" d="M-6 14H6L4 80h-8z"/><path fill="#a855f7" d="M-2 80h4l-2 40z"/><rect width="10" height="6" x="-5" y="77" fill="#1e293b" rx="1"/></g><g transform="rotate(30 205.263 -55)"><path fill="url(#agent-volumes-logo-square-light-theme-without-bg-favicon_svg__b)" d="M-6 14H6L4 80h-8z"/><path fill="#06b6d4" d="M-2 80h4l-2 40z"/><rect width="10" height="6" x="-5" y="77" fill="#1e293b" rx="1"/></g><g transform="translate(0 -55)"><rect width="76" height="6" x="-38" y="-3" fill="#1e293b" rx="3"/><circle cx="-31.75" r="4.5" fill="#fff" stroke="#1e293b" stroke-width="2"/><circle cx="31.75" r="4.5" fill="#fff" stroke="#1e293b" stroke-width="2"/></g><circle cy="-110" r="14" fill="#fff" stroke="#1e293b" stroke-width="6"/><circle cy="-110" r="4" fill="#1e293b"/><circle cy="100" r="10" fill="#1e293b"/><circle cx="-160" cy="20" r="8" fill="#a855f7"/><circle cx="160" cy="20" r="8" fill="#06b6d4"/><circle cx="-120" cy="-80" r="8" fill="#6366f1"/><circle cx="120" cy="-80" r="8" fill="#3b82f6"/></g></svg>